<?xml version="1.0" encoding="UTF-8"?>
<svg version="1.1" xmlns="http://www.w3.org/2000/svg" width="706" height="864">
<path d="M0 0 C308.02158273 0 308.02158273 0 334.375 5.3125 C335.44186035 5.52414795 336.5087207 5.7357959 337.60791016 5.95385742 C382.17912328 15.10990771 421.34651815 37.61796371 454 69 C454.54543457 69.51820312 455.09086914 70.03640625 455.65283203 70.5703125 C463.38275167 77.93948743 470.26799691 85.65140875 476.65722656 94.20849609 C478.00207029 96.00276214 479.3702424 97.77718437 480.7421875 99.55078125 C497.43465182 121.3875757 509.94571425 146.76531706 518 173 C518.26651367 173.86415527 518.53302734 174.72831055 518.80761719 175.61865234 C526.07268422 199.61791178 529.23242431 223.68116747 529.25 248.6875 C529.25101212 249.98482056 529.25101212 249.98482056 529.25204468 251.30834961 C529.2346282 265.40430233 528.52253689 279.10329876 526 293 C525.76651855 294.35593262 525.76651855 294.35593262 525.52832031 295.73925781 C517.48779163 341.23805784 496.4947125 384.1814058 465 418 C463.82858546 419.35006164 462.6617058 420.70407514 461.5 422.0625 C455.15476388 429.31004033 448.32828115 435.74128362 440.8046875 441.75390625 C438.97789738 443.21686491 437.16933051 444.70296955 435.3828125 446.21484375 C424.438775 455.4539496 412.4392819 462.95455798 400 470 C406.80325747 487.07117528 413.68365161 504.10954456 420.625 521.125 C421.59474258 523.50373696 422.56446889 525.88248055 423.53417969 528.26123047 C430.04385092 544.22528873 436.57592022 560.18005501 443.12597656 576.12757874 C443.44276367 576.89887619 443.75955078 577.67017365 444.0859375 578.46484375 C444.40208008 579.23457016 444.71822266 580.00429657 445.04394531 580.79734802 C448.99667187 590.42369701 452.93577063 600.05562181 456.875 609.6875 C457.25015747 610.60476868 457.62531494 611.52203735 458.01184082 612.46710205 C459.91393429 617.11783183 461.8158909 621.76861756 463.71777344 626.41943359 C467.10337436 634.69829996 470.49023855 642.97664953 473.87701416 651.2550354 C475.75139515 655.83666884 477.62569336 660.41833614 479.5 665 C480.2499996 666.8333335 480.9999996 668.66666683 481.75 670.5 C504.24999999 725.49999999 504.24999999 725.49999999 505.3747406 728.24940491 C506.12556883 730.08473679 506.87643356 731.92005374 507.62733459 733.75535583 C509.48996057 738.30799034 511.35197398 742.86087337 513.21264648 747.41430664 C516.73442607 756.03090505 520.26280224 764.64465331 523.81118774 773.25033569 C525.49251881 777.32896447 527.17058319 781.40893355 528.84838867 785.48901367 C529.6514391 787.43923285 530.45610105 789.3887893 531.26245117 791.33764648 C532.37823432 794.0346484 533.48851509 796.73385494 534.59765625 799.43359375 C535.09471825 800.62884926 535.09471825 800.62884926 535.6018219 801.84825134 C536.05620888 802.95868553 536.05620888 802.95868553 536.51977539 804.09155273 C536.78303116 804.72939194 537.04628693 805.36723114 537.31752014 806.0243988 C538 808 538 808 539 813 C464.42 813 389.84 813 313 813 C300.52210117 785.77549347 300.52210117 785.77549347 295.78787231 774.57345581 C294.23973416 770.91242714 292.67850188 767.2569873 291.1171875 763.6015625 C290.7895491 762.83430344 290.46191071 762.06704437 290.12434387 761.27653503 C285.99971266 751.63618515 281.78217848 742.03653306 277.5625 732.4375 C277.19172333 731.59357697 276.82094666 730.74965393 276.43893433 729.88015747 C275.35712604 727.41849382 274.27450878 724.9571882 273.19140625 722.49609375 C272.88659332 721.80329315 272.5817804 721.11049255 272.26773071 720.396698 C268.53310409 711.92171329 264.76339467 703.46223643 261 695 C260.9545382 695.58991384 260.9090764 696.17982767 260.86223698 696.78761768 C259.75633598 711.13441011 258.64623626 725.48087305 257.53144932 739.82697773 C256.99245083 746.76462063 256.45487955 753.70236863 255.9206543 760.64038086 C255.40539689 767.33200443 254.88618078 774.02330992 254.3645153 780.71443748 C254.16583184 783.27128057 253.96849038 785.82822829 253.77249336 788.3852787 C253.49841333 791.95806392 253.21962674 795.53045222 252.93969727 799.1027832 C252.85913589 800.16733231 252.77857452 801.23188141 252.6955719 802.32868958 C252.61846985 803.30044128 252.5413678 804.27219299 252.46192932 805.27339172 C252.39648202 806.11867589 252.33103472 806.96396006 252.26360416 807.83485889 C252 810 252 810 251 813 C168.17 813 85.34 813 0 813 C0 544.71 0 276.42 0 0 Z " fill="#6A1B99" transform="translate(98,24)"/>
<path d="M0 0 C308.02158273 0 308.02158273 0 334.375 5.3125 C335.44186035 5.52414795 336.5087207 5.7357959 337.60791016 5.95385742 C382.17912328 15.10990771 421.34651815 37.61796371 454 69 C454.54543457 69.51820312 455.09086914 70.03640625 455.65283203 70.5703125 C463.38275167 77.93948743 470.26799691 85.65140875 476.65722656 94.20849609 C478.00207029 96.00276214 479.3702424 97.77718437 480.7421875 99.55078125 C497.43465182 121.3875757 509.94571425 146.76531706 518 173 C518.26651367 173.86415527 518.53302734 174.72831055 518.80761719 175.61865234 C526.07268422 199.61791178 529.23242431 223.68116747 529.25 248.6875 C529.25101212 249.98482056 529.25101212 249.98482056 529.25204468 251.30834961 C529.2346282 265.40430233 528.52253689 279.10329876 526 293 C525.76651855 294.35593262 525.76651855 294.35593262 525.52832031 295.73925781 C517.48779163 341.23805784 496.4947125 384.1814058 465 418 C463.82858546 419.35006164 462.6617058 420.70407514 461.5 422.0625 C455.15476388 429.31004033 448.32828115 435.74128362 440.8046875 441.75390625 C438.97789738 443.21686491 437.16933051 444.70296955 435.3828125 446.21484375 C424.438775 455.4539496 412.4392819 462.95455798 400 470 C406.80325747 487.07117528 413.68365161 504.10954456 420.625 521.125 C421.59474258 523.50373696 422.56446889 525.88248055 423.53417969 528.26123047 C430.04385092 544.22528873 436.57592022 560.18005501 443.12597656 576.12757874 C443.44276367 576.89887619 443.75955078 577.67017365 444.0859375 578.46484375 C444.40208008 579.23457016 444.71822266 580.00429657 445.04394531 580.79734802 C448.99667187 590.42369701 452.93577063 600.05562181 456.875 609.6875 C457.25015747 610.60476868 457.62531494 611.52203735 458.01184082 612.46710205 C459.91393429 617.11783183 461.8158909 621.76861756 463.71777344 626.41943359 C467.10337436 634.69829996 470.49023855 642.97664953 473.87701416 651.2550354 C475.75139515 655.83666884 477.62569336 660.41833614 479.5 665 C480.2499996 666.8333335 480.9999996 668.66666683 481.75 670.5 C504.24999999 725.49999999 504.24999999 725.49999999 505.3747406 728.24940491 C506.12556883 730.08473679 506.87643356 731.92005374 507.62733459 733.75535583 C509.48996057 738.30799034 511.35197398 742.86087337 513.21264648 747.41430664 C516.73442607 756.03090505 520.26280224 764.64465331 523.81118774 773.25033569 C525.49251881 777.32896447 527.17058319 781.40893355 528.84838867 785.48901367 C529.6514391 787.43923285 530.45610105 789.3887893 531.26245117 791.33764648 C532.37823432 794.0346484 533.48851509 796.73385494 534.59765625 799.43359375 C535.09471825 800.62884926 535.09471825 800.62884926 535.6018219 801.84825134 C536.05620888 802.95868553 536.05620888 802.95868553 536.51977539 804.09155273 C536.78303116 804.72939194 537.04628693 805.36723114 537.31752014 806.0243988 C538 808 538 808 539 813 C464.42 813 389.84 813 313 813 C300.52210117 785.77549347 300.52210117 785.77549347 295.78787231 774.57345581 C294.23973416 770.91242714 292.67850188 767.2569873 291.1171875 763.6015625 C290.7895491 762.83430344 290.46191071 762.06704437 290.12434387 761.27653503 C285.99971266 751.63618515 281.78217848 742.03653306 277.5625 732.4375 C277.19172333 731.59357697 276.82094666 730.74965393 276.43893433 729.88015747 C275.35712604 727.41849382 274.27450878 724.9571882 273.19140625 722.49609375 C272.88659332 721.80329315 272.5817804 721.11049255 272.26773071 720.396698 C268.53310409 711.92171329 264.76339467 703.46223643 261 695 C260.9545382 695.58991384 260.9090764 696.17982767 260.86223698 696.78761768 C259.75633598 711.13441011 258.64623626 725.48087305 257.53144932 739.82697773 C256.99245083 746.76462063 256.45487955 753.70236863 255.9206543 760.64038086 C255.40539689 767.33200443 254.88618078 774.02330992 254.3645153 780.71443748 C254.16583184 783.27128057 253.96849038 785.82822829 253.77249336 788.3852787 C253.49841333 791.95806392 253.21962674 795.53045222 252.93969727 799.1027832 C252.85913589 800.16733231 252.77857452 801.23188141 252.6955719 802.32868958 C252.61846985 803.30044128 252.5413678 804.27219299 252.46192932 805.27339172 C252.39648202 806.11867589 252.33103472 806.96396006 252.26360416 807.83485889 C252 810 252 810 251 813 C168.17 813 85.34 813 0 813 C0 544.71 0 276.42 0 0 Z M19 19 C19 274.42 19 529.84 19 793 C87.31 793 155.62 793 226 793 C226.06962065 780.60384941 226.06962065 780.60384941 225.43676758 768.35229492 C225.34623234 767.24973484 225.34623234 767.24973484 225.2538681 766.12490082 C225.05684727 763.74286839 224.85071022 761.36172426 224.64453125 758.98046875 C224.50075485 757.26029234 224.35764038 755.5400605 224.21513367 753.81977844 C223.91191613 750.17202719 223.60497367 746.52461807 223.29492188 742.87744141 C222.55229632 734.13652645 221.8303226 725.39389328 221.10746384 716.65132523 C220.94440547 714.67999029 220.78111787 712.70867431 220.6176033 710.73737717 C219.14656332 692.99830896 217.79225072 675.2528732 216.5 657.5 C214.37986595 628.45186876 212.03523401 599.42360714 209.63193226 570.39760017 C209.33960408 566.86397028 209.04865668 563.33022724 208.75781822 559.79647446 C208.562139 557.42661551 208.36426694 555.05694789 208.16621399 552.68728638 C206.96717979 538.13116599 206.00523818 523.5759536 205 509 C227.77 509 250.54 509 274 509 C272.07947239 535.88738648 270.1563841 562.76616911 267.875 589.625 C266.76837826 602.68311006 265.67066327 615.73976728 264.75 628.8125 C264.62987549 630.47369873 264.62987549 630.47369873 264.50732422 632.16845703 C264.43787598 633.19181152 264.36842773 634.21516602 264.296875 635.26953125 C264.23854492 636.12135986 264.18021484 636.97318848 264.12011719 637.85083008 C264.08047852 638.89005615 264.04083984 639.92928223 264 641 C263.92538292 642.21830002 263.92538292 642.21830002 263.84925842 643.46121216 C263.58824672 650.46172303 264.84563212 655.4542992 267.77734375 661.765625 C268.17491882 662.6647612 268.5724939 663.5638974 268.9821167 664.49028015 C270.28201572 667.41887969 271.60959893 670.33400524 272.9375 673.25 C273.85664575 675.30840212 274.77369136 677.36774321 275.6887207 679.42797852 C277.55228849 683.61838876 279.42548097 687.80427519 281.30664062 691.98681641 C284.82346179 699.8189 288.24439067 707.69188005 291.65951538 715.56869507 C293.37293613 719.5169638 295.09503762 723.46144158 296.81640625 727.40625 C297.50411571 728.98305255 298.19177815 730.55987561 298.87939453 732.13671875 C299.22496399 732.92916992 299.57053345 733.72162109 299.92657471 734.53808594 C301.81486685 738.86890711 303.70234264 743.20008402 305.58984375 747.53125 C306.35652549 749.29044649 307.12320842 751.04964246 307.88989258 752.80883789 C308.9868963 755.32597743 310.08387659 757.84312716 311.18075562 760.36032104 C311.51902374 761.13658844 311.85729187 761.91285583 312.20581055 762.71264648 C312.53757797 763.47400406 312.8693454 764.23536163 313.21116638 765.01979065 C314.17557967 767.2320782 315.14098659 769.44393025 316.10644531 771.65576172 C317.41299904 774.64998266 318.71349437 777.64675571 320.01074219 780.64501953 C320.65038799 782.11881625 321.29003633 783.59261186 321.9296875 785.06640625 C322.22489288 785.75169907 322.52009827 786.43699188 322.82424927 787.14305115 C324.04983974 790.29930685 324.04983974 790.29930685 326 793 C328.378078 793.09764835 330.72707128 793.12997133 333.10560608 793.12025452 C333.85783414 793.12110894 334.6100622 793.12196337 335.38508505 793.12284368 C337.92479715 793.12450074 340.4644443 793.11897345 343.00415039 793.11352539 C344.81708271 793.11324354 346.63001514 793.11340121 348.44294739 793.1139679 C353.38075713 793.11425596 358.31854281 793.10835781 363.25634694 793.10139394 C368.41067843 793.09516186 373.56501042 793.09455672 378.71934509 793.09336853 C388.48704092 793.09025478 398.25472562 793.08204081 408.02241653 793.07201904 C419.13951812 793.06085925 430.25662022 793.05534779 441.37372601 793.05032361 C464.24915686 793.03985823 487.12457781 793.02225795 510 793 C507.72130022 786.02916596 507.72130022 786.02916596 505.10913086 779.1784668 C504.76632584 778.33840088 504.42352081 777.49833496 504.07032776 776.6328125 C503.70551804 775.74722656 503.34070831 774.86164062 502.96484375 773.94921875 C502.57429306 772.99442627 502.18374237 772.03963379 501.78135681 771.0559082 C500.50279641 767.93198133 499.22015802 764.80974639 497.9375 761.6875 C497.03569169 759.486198 496.13416591 757.28478024 495.23291016 755.08325195 C493.38609219 750.57311837 491.53771452 746.06362909 489.68798828 741.5546875 C487.22428984 735.54846716 484.7652607 729.54034932 482.30859375 723.53125 C481.56453478 721.71134429 480.82047554 719.89143869 480.07641602 718.0715332 C479.71299103 717.18261383 479.34956604 716.29369446 478.97512817 715.37783813 C477.12753866 710.8596005 475.27861524 706.34190889 473.4296875 701.82421875 C469.32786241 691.80153963 465.22726741 681.77835765 461.12701416 671.7550354 C459.25139496 667.17000225 457.37569338 662.58500281 455.5 658 C454.7499996 656.16666683 453.9999996 654.3333335 453.25 652.5 C452.87875 651.5925 452.5075 650.685 452.125 649.75 C451 647 449.875 644.25 448.75 641.5 C448.37876007 640.59252518 448.00752014 639.68505035 447.62503052 638.75007629 C446.87492721 636.9164893 446.12482548 635.08290165 445.37472534 633.24931335 C443.50131896 628.66985578 441.62788517 624.09040943 439.75439453 619.51098633 C436.3603447 611.21474286 432.96650315 602.91841448 429.57366943 594.62167358 C422.38362182 577.03937366 415.19138313 559.45800188 407.97875977 541.88494873 C407.00577009 539.51406002 406.03309826 537.14304118 405.06054688 534.77197266 C404.57742035 533.59414215 404.57742035 533.59414215 404.08453369 532.39251709 C403.42741876 530.79051128 402.77031432 529.18850117 402.11322021 527.58648682 C400.29415044 523.15223544 398.47360669 518.71859433 396.65136719 514.28564453 C394.61920139 509.34198785 392.58943681 504.39735068 390.56103516 499.45214844 C389.78456124 497.56035238 389.00724976 495.66889983 388.22900391 493.77783203 C383.62399656 482.58675728 379.1654431 471.3625696 375 460 C375.90758057 459.71189453 376.81516113 459.42378906 377.75024414 459.12695312 C380.35638217 458.22319434 382.59404064 457.28933925 384.99609375 455.96875 C385.71192627 455.57558594 386.42775879 455.18242187 387.1652832 454.77734375 C387.91511475 454.35582031 388.66494629 453.93429687 389.4375 453.5 C390.22664795 453.05785156 391.0157959 452.61570312 391.82885742 452.16015625 C407.95205435 443.00709401 422.76863299 432.21656393 436.28125 419.53125 C438.57912963 417.39184482 440.91658807 415.3398101 443.3125 413.3125 C447.28238284 409.8561749 450.62313855 406.02706459 454 402 C454.71542969 401.195625 455.43085937 400.39125 456.16796875 399.5625 C476.54719897 376.15796806 490.53352056 348.3824958 500 319 C500.25716797 318.23800293 500.51433594 317.47600586 500.77929688 316.69091797 C518.35886652 264.30526132 511.76195695 205.23113108 491 155 C490.67805664 154.22076172 490.35611328 153.44152344 490.02441406 152.63867188 C482.62752299 135.12095523 472.19901579 118.56168854 460 104 C459.4946875 103.39462402 458.989375 102.78924805 458.46875 102.16552734 C449.02853994 90.92407527 439.25152979 80.373227 427.65771484 71.29833984 C426.46695549 70.36572449 425.28024787 69.4279272 424.09619141 68.48681641 C414.47507577 60.85009894 404.75851971 53.93502193 394 48 C393.25459961 47.58621094 392.50919922 47.17242187 391.74121094 46.74609375 C381.45438379 41.07585584 371.14181446 35.79724646 360 32 C359.27780273 31.7529834 358.55560547 31.5059668 357.81152344 31.25146484 C256.83855191 -2.31407664 77.52292825 19 19 19 Z " fill="#FABF2D" transform="translate(98,24)"/>
<path d="M0 0 C19.99947052 8.340793 36.4797306 26.0754575 48 44 C48.64582031 44.99644531 49.29164063 45.99289063 49.95703125 47.01953125 C66.92473324 74.63363449 70.8224609 108.30744447 67 140 C78.35918837 135.16182718 85.8968813 126.27497118 93.5546875 116.91796875 C95.60565633 114.47056665 97.69946558 112.20958306 100 110 C103.8092402 115.64589054 106.6072783 121.34448759 109.0625 127.6875 C109.40756592 128.57107178 109.75263184 129.45464355 110.1081543 130.36499023 C120.90779661 158.33578292 124.76368569 187.89745407 113.625 216.375 C104.66797271 236.42039542 90.14322179 250.38565413 71.375 261.25 C70.69993408 261.64541992 70.02486816 262.04083984 69.3293457 262.44824219 C64.57632245 265.07565623 64.57632245 265.07565623 61.85009766 264.71777344 C60 264 60 264 59 262 C58.13588488 255.95119418 59.94265132 252.74545802 63.3515625 247.9921875 C65.3170524 245.61683241 67.59124132 243.91465433 70 242 C73.91847912 236.77954424 76.24957797 231.24792237 78.1875 225.0625 C78.43435547 224.31548828 78.68121094 223.56847656 78.93554688 222.79882812 C80.18842215 218.92660829 81.18561718 215.13432491 81.93359375 211.1328125 C82.54098037 208.28233873 82.80313971 207.216035 84.8046875 205.01953125 C85.48789062 204.62121094 86.17109375 204.22289062 86.875 203.8125 C91.70687647 200.65555712 94.14448126 197.56655622 96 192 C96.77494662 185.55905023 95.96372705 180.24092799 92 175 C86.21795628 169.54971288 81.2658236 167.57881382 73.37109375 167.734375 C68.29861695 168.30262611 64.74530719 170.23980746 61.16796875 173.84765625 C56.48121568 179.89543363 56.11552151 185.54351047 57 193 C57.33 193.99 57.66 194.98 58 196 C59.4898036 208.14415661 59.86148073 220.32817715 53 231 C50.81645802 233.41903844 48.42145719 235.52021384 45.9375 237.625 C40.86972956 241.95535492 36.76798856 245.5857955 35.56640625 252.4921875 C35.55758397 257.87377597 36.30567139 261.63590178 39.02734375 266.30859375 C40 268 40 268 41 271 C34.33571001 270.23836686 30.41000213 265.72862298 26 261 C19.76199153 252.10270448 19.25851537 243.63158102 20 233 C21.49832865 225.96392963 25.67807529 220.05427588 29.65014648 214.17163086 C41.54872732 196.50481938 44.52168106 176.0949456 40.625 155.375 C39.80976434 151.33547798 38.84831305 147.34698143 37.75 143.375 C36.63547636 138.35964361 37.38958151 135.29408721 39.5625 130.6875 C41.86419147 124.78316102 41.99728701 119.60882286 39.4375 113.75 C36.61812131 108.70532598 32.41181916 105.80393972 27 104 C20.72573327 103.32193287 14.7753224 102.77566751 9.4375 106.5625 C5.21887728 110.39761156 2.44880536 113.87706272 1.625 119.609375 C1.34735133 125.89117608 2.21719635 130.89437545 6 136 C8.36399745 138.47777273 10.79011173 140.53052598 14.0234375 141.78515625 C16.85706658 143.52677412 17.41306743 145.5013929 18.625 148.5625 C19.23214844 150.04943359 19.23214844 150.04943359 19.8515625 151.56640625 C24.43276687 165.26327236 26.1010848 183.29839318 19.96484375 196.69140625 C16.81378447 201.99746433 13.31671927 207.07675756 9.6340332 212.02832031 C1.98002703 222.53149761 -0.325187 235.13644066 1 248 C1.69485297 251.63853268 2.63004125 255.20150373 3.66479492 258.75708008 C5.09172962 263.72481115 5.09172962 263.72481115 4 267 C-5.44569835 256.57293039 -12.56064231 243.15368397 -14 229 C-14.16822266 227.91138672 -14.16822266 227.91138672 -14.33984375 226.80078125 C-14.58101584 224.30866969 -14.61605024 222.43383228 -14 220 C-12.15284925 217.96813418 -10.15609186 216.4133741 -7.98046875 214.7421875 C-3.88595529 211.14030781 -2.90343486 206.27932461 -2.5625 201 C-2.79948005 195.75552837 -4.8743883 191.30031951 -8.42578125 187.45703125 C-13.86137594 182.66752792 -18.5100014 181.58239618 -25.5703125 181.75 C-31.47418151 182.35747205 -35.28627244 185.58367534 -39 190 C-42.17270125 195.57957807 -42.89353195 200.71581923 -42 207 C-40.75031477 210.79391619 -39.48624811 214.12542335 -35.95458984 216.20361328 C-34 218 -34 218 -33.48583984 220.90405273 C-33.47762207 222.06880127 -33.4694043 223.2335498 -33.4609375 224.43359375 C-33.43773437 225.72330078 -33.41453125 227.01300781 -33.390625 228.34179688 C-33.38409827 229.70702558 -33.37889651 231.07226125 -33.375 232.4375 C-33.28287486 241.84808301 -32.81092789 250.7581692 -31 260 C-30.66161676 261.99915179 -30.32699354 263.99895369 -30 266 C-40.5412827 264.6569625 -49.03351776 258.6892907 -57 252 C-58.5159375 250.88625 -58.5159375 250.88625 -60.0625 249.75 C-72.43586666 239.22749705 -80.06618028 220.82048703 -82 205 C-82.69436072 190.80175555 -82.51206382 176.81602643 -79 163 C-78.80664062 162.23445801 -78.61328125 161.46891602 -78.4140625 160.68017578 C-74.90717654 147.23440699 -69.80930363 134.60132647 -64 122 C-63.67805664 121.29423828 -63.35611328 120.58847656 -63.02441406 119.86132812 C-55.58293194 103.71843041 -45.72967204 88.85187671 -35.75 74.1875 C-35.18901611 73.3627417 -34.62803223 72.5379834 -34.05004883 71.68823242 C-33.53337646 70.93904541 -33.0167041 70.1898584 -32.484375 69.41796875 C-31.79939941 68.42446411 -31.79939941 68.42446411 -31.10058594 67.41088867 C-30.73739258 66.94529541 -30.37419922 66.47970215 -30 66 C-29.67 66 -29.34 66 -29 66 C-28.89042969 67.08539063 -28.78085937 68.17078125 -28.66796875 69.2890625 C-28.50841392 70.73444152 -28.34822389 72.17975051 -28.1875 73.625 C-28.11724609 74.33785156 -28.04699219 75.05070312 -27.97460938 75.78515625 C-27.33736727 81.34190742 -26.0789069 85.9210931 -22 90 C-15.83921428 89.88152335 -13.34942018 87.94482295 -9 84 C-8.34 84 -7.68 84 -7 84 C-6.59394531 83.13568359 -6.59394531 83.13568359 -6.1796875 82.25390625 C-4.9897289 79.98037607 -3.62522282 78.01682437 -2.125 75.9375 C1.26025272 70.90916121 3.24081008 65.77657075 5 60 C5.226875 59.29488281 5.45375 58.58976562 5.6875 57.86328125 C10.07046329 41.88372758 6.01371495 24.07018967 1.90234375 8.49609375 C1.17302222 5.67036746 0.5338826 2.86755498 0 0 Z " fill="#F9BE2D" transform="translate(320,92)"/>
<path d="M0 0 C45.87 0 91.74 0 139 0 C137.79566732 6.62382974 136.58164881 13.20696795 135.16015625 19.78125 C134.99253281 20.56085083 134.82490936 21.34045166 134.65220642 22.14367676 C134.30103943 23.77387996 133.94894772 25.40388423 133.59594727 27.03369141 C133.06371618 29.49437718 132.53660348 31.95612338 132.00976562 34.41796875 C131.66437328 36.01829627 131.31868011 37.6185589 130.97265625 39.21875 C130.74280785 40.29582214 130.74280785 40.29582214 130.50831604 41.39465332 C129.21181405 47.34509598 127.60954687 53.09832814 126 59 C88.71 59 51.42 59 13 59 C4.89852941 25.43676471 4.89852941 25.43676471 2.5625 14.3125 C2.30791016 13.12462891 2.05332031 11.93675781 1.79101562 10.71289062 C0 2.27918632 0 2.27918632 0 0 Z " fill="#FABF2D" transform="translate(268,419)"/>
<path d="M0 0 C65.01 0 130.02 0 197 0 C197 8.58 197 17.16 197 26 C131.99 26 66.98 26 0 26 C0 17.42 0 8.84 0 0 Z " fill="#F9BE2E" transform="translate(239,375)"/>
<path d="M0 0 C34.32 0 68.64 0 104 0 C100 18 100 18 98 24 C67.31 24 36.62 24 5 24 C1.56896552 13.70689655 1.56896552 13.70689655 0.8125 10.3125 C0.65394531 9.62800781 0.49539063 8.94351562 0.33203125 8.23828125 C0 6 0 6 0 0 Z " fill="#F6BA30" transform="translate(286,496)"/>
<path d="M0 0 C4.0318506 1.3439502 5.32041925 2.42675465 7.375 6.125 C8.0352967 10.08678018 7.74050574 11.57674139 5.5 14.9375 C3.00480912 17.50607884 2.09330363 18.02922618 -1.4375 18.5 C-4.625 18.125 -4.625 18.125 -7.5 16.125 C-9.85263916 12.80362707 -10.44434893 11.0551218 -10.171875 7.06640625 C-8.72760112 1.93923399 -4.96542922 0.1712217 0 0 Z " fill="#F5BA30" transform="translate(342.625,205.875)"/>
<path d="M0 0 C3.34265205 1.20706879 3.94704566 1.92056849 6 5 C6.56551375 9.36253463 6.49322651 11.29752588 3.9375 14.9375 C1 17 1 17 -2.5 17.625 C-6.95850936 16.82883761 -8.40783917 15.69186542 -11 12 C-11.625 8.5 -11.625 8.5 -11 5 C-7.76968443 0.53456377 -5.48257884 -0.81655429 0 0 Z " fill="#F7BC2F" transform="translate(300,285)"/>
<path d="M0 0 C2.69990662 1.79993774 4.5418865 3.083773 6 6 C6.52981019 9.97357645 6.31881474 11.54170381 4 14.875 C-0.14563015 17.81148802 -1.99328289 17.7152453 -7 17 C-9.5 15.5625 -9.5 15.5625 -11 13 C-11.60303852 9.8699429 -11.65919094 7.12399182 -11 4 C-7.77123438 0.10648852 -4.96361941 -0.8272699 0 0 Z " fill="#F7BB2F" transform="translate(399,271)"/>
</svg>
